<?xml version="1.0" encoding="utf-8"?>
<!-- Generator: Adobe Illustrator 19.1.0, SVG Export Plug-In . SVG Version: 6.00 Build 0)  -->
<svg version="1.1" id="Layer_1" xmlns="http://www.w3.org/2000/svg" xmlns:xlink="http://www.w3.org/1999/xlink" x="0px" y="0px"
	 width="90px" height="112.5px" viewBox="-550 364.4 90 112.5" style="enable-background:new -550 364.4 90 112.5;"
	 xml:space="preserve">
<style type="text/css">
	.st0{fill:#9D9D24;}
</style>
<g>
	<path class="st0" d="M-470.7,407.3l-17.3-29.3c-0.6-1-1.6-1.7-2.9-1.7l-34.1,0.3c-1.1,0-2.2,0.7-2.8,1.7l-16.7,29.8
		c-0.6,1-0.5,2.3,0.1,3.2l17.3,29.3c0.4,0.7,1.2,1.3,2,1.5c0.3,0.1,0.6,0.1,0.9,0.1l34.1-0.3c1.1,0,2.2-0.7,2.8-1.7l16.7-29.7
		C-470.2,409.5-470.2,408.3-470.7,407.3z M-492.2,435.3l-30.2,0.3l-15.4-26l14.8-26.3l30.2-0.3l15.4,26L-492.2,435.3z"/>
	<path class="st0" d="M-526.2,404.5c-2.6,10.3,3.6,20.7,13.8,23.4c10.3,2.6,20.7-3.6,23.4-13.8c2.6-10.3-3.6-20.7-13.8-23.4
		C-513.1,388.1-523.6,394.3-526.2,404.5z M-492.2,413.2c-2.2,8.5-10.8,13.6-19.4,11.4s-13.6-10.8-11.4-19.4
		c2.2-8.5,10.8-13.6,19.4-11.4C-495.1,396.1-490,404.7-492.2,413.2z"/>
</g>
</svg>
