<?xml version="1.0" encoding="utf-8"?>
<!-- Generator: Adobe Illustrator 19.1.0, SVG Export Plug-In . SVG Version: 6.00 Build 0)  -->
<svg version="1.1" id="Layer_1" xmlns="http://www.w3.org/2000/svg" xmlns:xlink="http://www.w3.org/1999/xlink" x="0px" y="0px"
	 width="100px" height="100px" viewBox="-545 358.9 100 100" style="enable-background:new -545 358.9 100 100;"
	 xml:space="preserve">
<style type="text/css">
	.st0{fill:#9D9C24;}
	.st1{fill:none;stroke:#9D9C24;stroke-width:3;stroke-miterlimit:10;}
	.st2{fill:#9D9C24;stroke:#9C9C24;stroke-width:2;stroke-miterlimit:10;}
</style>
<path class="st0" d="M-463.5,406.9h-20l-2-2v-20l2-2h20l2,2v20L-463.5,406.9z M-481.5,402.9h16v-16h-16V402.9z"/>
<line class="st1" x1="-473.5" y1="384.9" x2="-473.5" y2="358.9"/>
<line class="st1" x1="-473.5" y1="458.9" x2="-473.5" y2="404.9"/>
<line class="st1" x1="-483" y1="394.4" x2="-545" y2="394.4"/>
<line class="st1" x1="-445" y1="394.4" x2="-463" y2="394.4"/>
<line class="st1" x1="-525" y1="409.9" x2="-525" y2="439.9"/>
<path class="st0" d="M-493.5,440.9h-2c0-1,0-1.5-0.1-2.2l2,0C-493.5,439.4-493.5,439.9-493.5,440.9z M-495.8,436.5
	c-0.1-0.6-0.2-1.3-0.3-1.9l2-0.4c0.1,0.7,0.2,1.4,0.3,2L-495.8,436.5z M-496.5,432.7c-0.2-0.6-0.4-1.2-0.6-1.8l1.9-0.7
	c0.2,0.6,0.4,1.3,0.6,2L-496.5,432.7z M-497.8,429.1c-0.3-0.6-0.5-1.2-0.8-1.8l1.8-0.9c0.3,0.6,0.6,1.2,0.9,1.9L-497.8,429.1z
	 M-499.5,425.6c-0.3-0.6-0.7-1.1-1-1.6l1.6-1.1c0.4,0.6,0.8,1.2,1.1,1.7L-499.5,425.6z M-501.7,422.5c-0.4-0.5-0.8-1-1.2-1.5
	l1.5-1.3c0.5,0.5,0.9,1,1.3,1.6L-501.7,422.5z M-504.3,419.6c-0.5-0.4-0.9-0.9-1.4-1.3l1.3-1.5c0.5,0.4,1,0.9,1.5,1.4L-504.3,419.6z
	 M-507.2,417.1c-0.5-0.4-1-0.7-1.6-1.1l1.1-1.7c0.6,0.4,1.1,0.8,1.7,1.2L-507.2,417.1z M-510.5,415c-0.6-0.3-1.1-0.6-1.7-0.9
	l0.8-1.8c0.6,0.3,1.2,0.6,1.8,0.9L-510.5,415z M-514,413.4c-0.6-0.2-1.2-0.4-1.8-0.6l0.6-1.9c0.7,0.2,1.3,0.4,1.9,0.7L-514,413.4z
	 M-517.7,412.2c-0.6-0.1-1.3-0.3-1.9-0.4l0.3-2c0.7,0.1,1.4,0.3,2,0.4L-517.7,412.2z M-521.5,411.5c-0.6-0.1-1.3-0.1-1.9-0.1l0.1-2
	c0.7,0,1.4,0.1,2.1,0.1L-521.5,411.5z"/>
<polygon class="st0" points="-530,445.9 -545,445.9 -545,443.9 -532,443.9 -532,440.9 -545,440.9 -545,438.9 -530,438.9 "/>
<rect x="-529" y="439.9" class="st2" width="4" height="5"/>
<polygon class="st0" points="-445,445.9 -490,445.9 -490,438.9 -445,438.9 -445,440.9 -488,440.9 -488,443.9 -445,443.9 "/>
<rect x="-495" y="439.9" class="st2" width="4" height="5"/>
<path class="st0" d="M-259.3,364.3h-37v-10.6c0-8.7-7.1-15.9-15.9-15.9h-31.7c-8.7,0-15.9,7.1-15.9,15.9v10.6h-37
	c-2.9,0-5.3,2.4-5.3,5.3v21.1c0,2.9,2.4,5.3,5.3,5.3v47.6c0,2.9,2.4,5.3,5.3,5.3h126.9c2.9,0,5.3-2.4,5.3-5.3V396
	c2.9,0,5.3-2.4,5.3-5.3v-21.1C-254,366.7-256.4,364.3-259.3,364.3z M-354.4,353.7c0-5.8,4.7-10.6,10.6-10.6h31.7
	c5.8,0,10.6,4.7,10.6,10.6v10.6h-5.3v-10.6c0-2.9-2.4-5.3-5.3-5.3h-31.7c-2.9,0-5.3,2.4-5.3,5.3v10.6h-5.3V353.7z M-312.1,353.7
	v10.6h-31.7v-10.6H-312.1z M-264.6,443.6h-126.9V396h52.9v7.9c0,5.8,4.7,10.6,10.6,10.6s10.6-4.7,10.6-10.6V396h52.9V443.6z
	 M-322.7,401.3v2.6c0,2.9-2.4,5.3-5.3,5.3c-2.9,0-5.3-2.4-5.3-5.3v-2.6H-322.7z M-333.3,396v-10.6h10.6V396H-333.3z M-259.3,390.7
	h-58.1v-5.3c0-2.9-2.4-5.3-5.3-5.3h-10.6c-2.9,0-5.3,2.4-5.3,5.3v5.3h-58.1v-21.1h137.4V390.7z"/>
</svg>
