<?xml version="1.0" encoding="utf-8"?>
<!-- Generator: Adobe Illustrator 19.1.0, SVG Export Plug-In . SVG Version: 6.00 Build 0)  -->
<svg version="1.1" id="Layer_1" xmlns="http://www.w3.org/2000/svg" xmlns:xlink="http://www.w3.org/1999/xlink" x="0px" y="0px"
	 width="100px" height="125px" viewBox="-545 358.9 100 125" style="enable-background:new -545 358.9 100 125;"
	 xml:space="preserve">
<style type="text/css">
	.st0{fill:#9D9D24;}
</style>
<g>
	<path class="st0" d="M-496.1,385.7c0,12.5,0,25,0,37.6c0,3,0,6.1,0,9.1c0,1,1.5,1,1.5,0c0-12.5,0-25,0-37.6c0-3,0-6.1,0-9.1
		C-494.6,384.7-496.1,384.7-496.1,385.7L-496.1,385.7z"/>
	<path class="st0" d="M-475.9,386c5.2,11.1,10.4,22.2,15.7,33.3c2.1,4.4,4.2,8.9,6.3,13.3c0.4,0.9,1.7,0.1,1.3-0.8
		c-5.2-11.1-10.4-22.2-15.7-33.3c-2.1-4.4-4.2-8.9-6.3-13.3C-475,384.4-476.3,385.2-475.9,386L-475.9,386z"/>
	<path class="st0" d="M-540.3,429.8c9.4,0,18.8,0,28.1,0c15.7,0,31.4,0,47.1,0c4.7,0,9.5,0,14.2,0c1,0,1-1.5,0-1.5
		c-9.4,0-18.8,0-28.1,0c-15.7,0-31.4,0-47.1,0c-4.7,0-9.5,0-14.2,0C-541.2,428.3-541.2,429.8-540.3,429.8L-540.3,429.8z"/>
	<path class="st0" d="M-532.2,408.2c10.6,0,21.2,0,31.7,0c13.3,0,26.7,0,40,0c0.6,0,1.1,0,1.7,0c1,0,1-1.5,0-1.5
		c-10.6,0-21.2,0-31.7,0c-13.3,0-26.7,0-40,0c-0.6,0-1.1,0-1.7,0C-533.1,406.7-533.1,408.2-532.2,408.2L-532.2,408.2z"/>
	<path class="st0" d="M-522.7,391.5c12.1,0,24.3,0,36.4,0c5.8,0,11.7,0,17.5,0c1,0,1-1.5,0-1.5c-12.1,0-24.3,0-36.4,0
		c-5.8,0-11.7,0-17.5,0C-523.7,390-523.7,391.5-522.7,391.5L-522.7,391.5z"/>
	<path class="st0" d="M-515.8,385.3c-5.2,11.1-10.4,22.2-15.7,33.3c-2.1,4.4-4.2,8.9-6.3,13.3c-0.4,0.9,0.9,1.6,1.3,0.8
		c5.2-11.1,10.4-22.2,15.7-33.3c2.1-4.4,4.2-8.9,6.3-13.3C-514.1,385.2-515.4,384.4-515.8,385.3L-515.8,385.3z"/>
</g>
</svg>
